<?xml version="1.0" encoding="UTF-8" standalone="no"?>
<svg
   xmlns:dc="http://purl.org/dc/elements/1.1/"
   xmlns:cc="http://creativecommons.org/ns#"
   xmlns:rdf="http://www.w3.org/1999/02/22-rdf-syntax-ns#"
   xmlns:svg="http://www.w3.org/2000/svg"
   xmlns="http://www.w3.org/2000/svg"
   xmlns:sodipodi="http://sodipodi.sourceforge.net/DTD/sodipodi-0.dtd"
   xmlns:inkscape="http://www.inkscape.org/namespaces/inkscape"
   inkscape:version="1.0 (6e3e5246a0, 2020-05-07)"
   sodipodi:docname="logo-vector.svg"
   id="svg49"
   version="1.2"
   viewBox="0 0 1098.4828 287.79687"
   height="287.79688pt"
   width="1098.4828pt">
  <metadata
     id="metadata55">
    <rdf:RDF>
      <cc:Work
         rdf:about="">
        <dc:format>image/svg+xml</dc:format>
        <dc:type
           rdf:resource="http://purl.org/dc/dcmitype/StillImage" />
        <dc:title></dc:title>
      </cc:Work>
    </rdf:RDF>
  </metadata>
  <defs
     id="defs53" />
  <sodipodi:namedview
     inkscape:current-layer="svg49"
     inkscape:window-maximized="1"
     inkscape:window-y="34"
     inkscape:window-x="67"
     inkscape:cy="1173.2684"
     inkscape:cx="750.18103"
     inkscape:zoom="0.23649976"
     fit-margin-bottom="20"
     fit-margin-right="20"
     fit-margin-left="20"
     fit-margin-top="20"
     lock-margins="true"
     showgrid="false"
     id="namedview51"
     inkscape:window-height="1018"
     inkscape:window-width="1853"
     inkscape:pageshadow="2"
     inkscape:pageopacity="0"
     guidetolerance="10"
     gridtolerance="10"
     objecttolerance="10"
     borderopacity="1"
     bordercolor="#666666"
     pagecolor="#ffffff" />
  <g
     transform="translate(-130.36489,-222.97656)"
     id="surface668">
    <path
       id="path2"
       d="m 156.82812,490.77344 c -3.66406,-4.14063 -8.61718,-7.91797 -5.45312,-14.46094 2.83203,-5.86719 7.96094,-7.12891 14.19141,-7.11719 72.38671,0.14063 144.77734,0.0937 217.16796,0.0781 5.79688,0 11.81641,-0.15625 14.62891,6.16797 2.94141,6.625 -0.56641,11.38671 -5.625,15.33203 z m 0,0"
       style="fill:#0c458a;fill-opacity:1;fill-rule:nonzero;stroke:none" />
    <path
       id="path4"
       d="m 197.51172,288.33203 c 4.60156,0.0117 9.21094,-0.17969 13.79687,0.0586 6.73828,0.34766 10.91016,4.82032 10.9336,10.78907 0.0195,5.41797 -3.91016,10.09765 -10.1836,10.3125 -9.89453,0.33203 -19.82031,0.41797 -29.71093,-0.0274 -6.59375,-0.30078 -10.82813,-4.74609 -10.21875,-11.15625 0.57031,-6.04687 4.74609,-10.07422 11.57421,-9.99609 4.60157,0.0508 9.20704,0.0117 13.8086,0.0195"
       style="fill:#1c73e6;fill-opacity:1;fill-rule:nonzero;stroke:none" />
    <path
       id="path6"
       d="m 196.71484,355.71484 c -4.60547,-0.004 -9.26172,0.44922 -13.79687,-0.11718 -6.23438,-0.77344 -11.05078,-4.53125 -10.83985,-10.96875 0.19922,-6.24219 4.47657,-10.26954 11.23047,-10.35157 9.20703,-0.10937 18.42188,-0.14062 27.62891,0.008 6.66016,0.11328 11.19141,4.09765 11.43359,10.28125 0.2461,6.30859 -4.52343,10.29296 -10.78515,11.03515 -4.89453,0.58203 -9.90625,0.11719 -14.8711,0.11328"
       style="fill:#1e5cab;fill-opacity:1;fill-rule:nonzero;stroke:none" />
    <path
       id="path8"
       d="m 196.90234,401.01562 c -4.62109,0 -9.24609,-0.0859 -13.86718,0.0195 -6.55469,0.15234 -10.02735,-3.89454 -10.94922,-9.44532 -1.04297,-6.27343 3.28125,-10.60937 8.875,-11.33203 10.89843,-1.40625 22.01562,-1.5664 32.91797,0.11328 5.33593,0.82422 9.33203,5.16016 8.54687,10.58985 -0.76172,5.24218 -4.08594,9.90625 -10.58984,10.03515 -4.97657,0.10157 -9.95313,0.0195 -14.9336,0.0195"
       style="fill:#0c428a;fill-opacity:1;fill-rule:nonzero;stroke:none" />
    <path
       id="path10"
       d="m 273.65234,401.02344 c -4.61718,0 -9.22656,0.0234 -13.83984,-0.004 -6.25391,-0.0352 -10.24609,-3.20312 -10.83203,-9.33594 -0.58985,-6.22265 3.27734,-10.60547 8.95703,-11.38672 10.875,-1.48437 21.94922,-1.46875 32.84766,0.0195 5.60156,0.76953 8.71484,5.62109 8.39453,10.73046 -0.3125,5.08985 -3.875,9.30469 -9.57813,9.78907 -5.28515,0.45312 -10.63281,0.0976 -15.94922,0.0976 z m 0,0"
       style="fill:#1e5cab;fill-opacity:1;fill-rule:nonzero;stroke:none" />
    <path
       id="path12"
       d="m 196.80859,446.33984 c -4.60547,-0.008 -9.23047,0.19141 -13.82031,-0.0586 -6.64062,-0.36719 -10.85937,-4.34766 -10.94922,-10.6875 -0.0937,-5.98828 4.48828,-10.03125 10.15625,-10.42969 9.875,-0.70312 19.875,-0.76562 29.7461,-0.0508 6.13671,0.43359 10.97265,4.86328 10.42578,11.24219 -0.51953,6.05859 -4.96485,9.99609 -11.73438,9.99609 -4.60937,0 -9.21484,0 -13.82422,-0.0117"
       style="fill:#0c428a;fill-opacity:1;fill-rule:nonzero;stroke:none" />
    <path
       id="path14"
       d="m 273.73828,446.33984 c -4.26953,0.0117 -8.54297,-0.0351 -12.80859,0.0195 -6.57032,0.0859 -11.12891,-2.84375 -12,-9.4375 -0.94141,-7.07421 4.28906,-11.05468 9.92578,-11.61718 10.21484,-1.01953 20.64062,-0.80078 30.90625,-0.0899 5.95312,0.41016 9.86328,5.54688 9.5039,11.04688 -0.35546,5.33594 -4.07031,9.90625 -10.58203,10.04297 -4.98047,0.10547 -9.96093,0.0273 -14.94531,0.0351"
       style="fill:#0c428a;fill-opacity:1;fill-rule:nonzero;stroke:none" />
    <path
       id="path16"
       d="m 350.875,446.32422 c -4.60547,-0.0117 -9.22266,0.20703 -13.80469,-0.0625 -6.63281,-0.39063 -10.92187,-4.47266 -10.9375,-10.72266 -0.0117,-5.77734 4.50781,-10.01953 10.24219,-10.40234 9.87109,-0.66016 19.85547,-0.73047 29.71094,0.0195 6.07422,0.46094 10.97656,4.69141 10.35937,11.24219 -0.58203,6.1875 -5.05469,9.91406 -11.76172,9.92578 -4.60156,0.0156 -9.20703,0.008 -13.80859,0"
       style="fill:#1e5cab;fill-opacity:1;fill-rule:nonzero;stroke:none" />
    <path
       id="path18"
       d="m 273.32422,355.73437 c -4.26563,0 -8.57031,0.35157 -12.79297,-0.0781 -6.80469,-0.69531 -11.8125,-4.55078 -11.41406,-11.55469 0.35937,-6.3789 5.13672,-9.82422 11.80468,-9.83203 8.89454,-0.008 17.78516,0.043 26.67579,-0.008 6.98046,-0.0391 11.19921,4.19531 11.38671,10.25781 0.19141,6.08984 -4.01562,10.62891 -10.72265,11.10938 -4.95703,0.35156 -9.95703,0.0703 -14.9375,0.0703 z m 0,0"
       style="fill:#1973e6;fill-opacity:1;fill-rule:nonzero;stroke:none" />
    <path
       id="path20"
       d="m 350.69531,401.03125 c -4.60156,-0.008 -9.20703,0.0898 -13.80469,-0.0273 -6.38671,-0.16797 -10.22265,-4.54297 -10.69531,-9.86719 -0.48828,-5.56641 3.33985,-10.58203 9.38672,-10.92578 10.55469,-0.60157 21.21094,-0.69141 31.74219,0.10937 5.74219,0.4375 9.90234,5.05469 9.11328,11.06641 -0.72656,5.53906 -4.53906,9.54297 -10.88281,9.64062 -4.95313,0.0742 -9.90625,0.0156 -14.85938,0.004"
       style="fill:#1973e6;fill-opacity:1;fill-rule:nonzero;stroke:none" />
    <path
       id="path22"
       d="m 196.89062,262.73437 c -5.32031,-0.008 -10.63671,0.15625 -15.94531,-0.0508 -5.42969,-0.21875 -8.58984,-3.55468 -8.95312,-8.71093 -0.39844,-5.66016 2.78515,-10.19922 8.3125,-10.52344 11.29297,-0.66797 22.67187,-0.59375 33.97265,0.008 5.2461,0.27734 8.11719,5.27734 7.96485,9.85547 -0.16407,5.05078 -3.10157,9.44922 -9.41016,9.4375 -5.31641,-0.0156 -10.62891,-0.004 -15.94141,-0.0156"
       style="fill:#68a6f5;fill-opacity:1;fill-rule:nonzero;stroke:none" />
    <path
       id="path24"
       d="m 726.57812,445.98828 h -10.33984 v -88.92969 h 49.57422 v 9.1836 h -39.23438 v 32.54297 h 36.86329 v 9.18359 h -36.86329 z m 0,0"
       style="fill:#000000;fill-opacity:1;fill-rule:nonzero;stroke:none" />
    <path
       id="path26"
       d="m 807.92969,378.10547 c 2.96093,0 5.61718,0.24219 7.96875,0.73047 L 814.5,388.20312 c -2.75781,-0.60937 -5.19141,-0.91406 -7.29688,-0.91406 -5.39453,0 -10.00781,2.19141 -13.83984,6.57031 -3.83203,4.37891 -5.75,9.83204 -5.75,16.36329 v 35.76562 h -10.09375 v -66.66797 h 8.33203 l 1.15625,12.34766 h 0.48438 c 2.47265,-4.33985 5.45312,-7.6836 8.9414,-10.03516 3.48828,-2.35156 7.32032,-3.52734 11.4961,-3.52734"
       style="fill:#000000;fill-opacity:1;fill-rule:nonzero;stroke:none" />
    <path
       id="path28"
       d="m 833.62891,412.59375 c 0,8.51562 1.69921,15.00391 5.10546,19.46484 3.41016,4.46094 8.41407,6.69141 15.02735,6.69141 6.60937,0 11.6289,-2.21875 15.05469,-6.66016 3.42578,-4.4414 5.13671,-10.9375 5.13671,-19.49609 0,-8.47656 -1.71093,-14.91016 -5.13671,-19.3125 -3.42579,-4.40234 -8.48829,-6.60156 -15.17579,-6.60156 -6.61328,0 -11.60156,2.17187 -14.96484,6.51172 -3.36719,4.33984 -5.04687,10.80468 -5.04687,19.40234 m 50.78906,0 c 0,10.86719 -2.73828,19.35547 -8.21094,25.45703 -5.47656,6.10547 -13.03906,9.15234 -22.6875,9.15234 -5.96094,0 -11.25391,-1.39843 -15.87891,-4.19531 -4.62109,-2.79687 -8.1914,-6.8125 -10.70312,-12.04297 -2.51563,-5.23047 -3.77344,-11.35547 -3.77344,-18.37109 0,-10.86719 2.71875,-19.33203 8.15235,-25.39453 5.43359,-6.0625 12.97265,-9.09375 22.625,-9.09375 9.32812,0 16.73828,3.10156 22.23437,9.30469 5.49609,6.20312 8.24219,14.60156 8.24219,25.18359"
       style="fill:#000000;fill-opacity:1;fill-rule:nonzero;stroke:none" />
    <path
       id="path30"
       d="m 946.24609,445.98828 v -43.12891 c 0,-5.43359 -1.23828,-9.48828 -3.71093,-12.16406 -2.47266,-2.67578 -6.34766,-4.01562 -11.61719,-4.01562 -6.97656,0 -12.08594,1.88672 -15.32813,5.66015 -3.24609,3.76953 -4.86718,9.9961 -4.86718,18.67188 v 34.97656 H 900.625 v -66.66797 h 8.21094 l 1.64062,9.125 h 0.48828 c 2.06641,-3.28515 4.96875,-5.82812 8.69922,-7.63281 3.73047,-1.80469 7.88672,-2.70703 12.46875,-2.70703 8.03125,0 14.07422,1.9375 18.12891,5.80859 4.05078,3.8711 6.08203,10.06641 6.08203,18.58203 v 43.49219 z m 0,0"
       style="fill:#000000;fill-opacity:1;fill-rule:nonzero;stroke:none" />
    <path
       id="path32"
       d="m 997.125,438.87109 c 1.78125,0 3.5078,-0.13281 5.168,-0.39453 1.664,-0.26172 2.9804,-0.53906 3.9531,-0.82031 v 7.72266 c -1.0938,0.52734 -2.707,0.96484 -4.8359,1.30859 -2.12895,0.34375 -4.04301,0.51953 -5.74614,0.51953 -12.89453,0 -19.34375,-6.79297 -19.34375,-20.37891 v -39.66015 h -9.55078 v -4.86719 l 9.55078,-4.19531 4.25781,-14.23438 h 5.83985 v 15.44922 h 19.34373 v 7.84766 h -19.34373 v 39.23437 c 0,4.01563 0.95312,7.09766 2.85937,9.2461 1.90625,2.14843 4.51953,3.22265 7.84766,3.22265"
       style="fill:#000000;fill-opacity:1;fill-rule:nonzero;stroke:none" />
    <path
       id="path34"
       d="m 1028.1719,445.98828 h -10.0977 v -66.66797 h 10.0977 z m -10.9492,-84.73437 c 0,-2.3125 0.5664,-4.00391 1.7031,-5.07813 1.1367,-1.07422 2.5547,-1.61328 4.2578,-1.61328 1.6211,0 3.0195,0.54687 4.1992,1.64453 1.1758,1.09375 1.7617,2.77734 1.7617,5.04688 0,2.27343 -0.5859,3.96484 -1.7617,5.08203 -1.1797,1.11328 -2.5781,1.67187 -4.1992,1.67187 -1.7031,0 -3.1211,-0.55859 -4.2578,-1.67187 -1.1367,-1.11719 -1.7031,-2.8086 -1.7031,-5.08203"
       style="fill:#000000;fill-opacity:1;fill-rule:nonzero;stroke:none" />
    <path
       id="path36"
       d="m 1073.5156,386.55859 c -5.3554,0 -9.6211,1.7461 -12.8086,5.23047 -3.1797,3.48828 -5.0547,8.31641 -5.625,14.48047 h 34.8555 c 0,-6.36719 -1.418,-11.24609 -4.2578,-14.63281 -2.8399,-3.38281 -6.8945,-5.07813 -12.1641,-5.07813 m 2.7344,60.64844 c -9.8516,0 -17.6289,-3.00391 -23.3281,-9.00391 -5.6953,-6 -8.5469,-14.33593 -8.5469,-25 0,-10.74609 2.6484,-19.28515 7.9414,-25.60937 5.293,-6.32422 12.3984,-9.48828 21.3203,-9.48828 8.3516,0 14.961,2.74609 19.8281,8.24219 4.8672,5.49218 7.3008,12.74218 7.3008,21.74609 v 6.38672 h -45.9258 c 0.2032,7.82422 2.1797,13.76562 5.9297,17.82031 3.75,4.05859 9.0313,6.08203 15.8477,6.08203 7.1758,0 14.2734,-1.5 21.2891,-4.5 v 9.00391 c -3.5704,1.53906 -6.9454,2.64453 -10.129,3.3164 -3.1835,0.66797 -7.0273,1.00391 -11.5273,1.00391"
       style="fill:#000000;fill-opacity:1;fill-rule:nonzero;stroke:none" />
    <path
       id="path38"
       d="m 1146.8984,378.10547 c 2.9571,0 5.6172,0.24219 7.9688,0.73047 l -1.3984,9.36718 c -2.7579,-0.60937 -5.1915,-0.91406 -7.3008,-0.91406 -5.3946,0 -10.0039,2.19141 -13.836,6.57031 -3.832,4.37891 -5.75,9.83204 -5.75,16.36329 v 35.76562 h -10.0976 v -66.66797 h 8.332 l 1.1563,12.34766 h 0.4882 c 2.4727,-4.33985 5.4532,-7.6836 8.9414,-10.03516 3.4844,-2.35156 7.3165,-3.52734 11.4961,-3.52734"
       style="fill:#000000;fill-opacity:1;fill-rule:nonzero;stroke:none" />
    <path
       id="path40"
       d="m 1208.8477,427.80078 c 0,6.20313 -2.3125,10.98828 -6.9375,14.35547 -4.6211,3.36719 -11.1094,5.04687 -19.461,5.04687 -8.8437,0 -15.7383,-1.39843 -20.6836,-4.19531 v -9.36719 c 3.2032,1.6211 6.6407,2.89844 10.3086,3.83204 3.6719,0.93359 7.211,1.39843 10.6172,1.39843 5.2695,0 9.3281,-0.83984 12.1641,-2.52343 2.8398,-1.6836 4.2578,-4.2461 4.2578,-7.69532 0,-2.59375 -1.125,-4.8164 -3.375,-6.66015 -2.25,-1.84375 -6.6406,-4.02344 -13.168,-6.53907 -6.207,-2.3125 -10.6172,-4.32812 -13.2305,-6.05078 -2.6171,-1.72656 -4.5625,-3.68359 -5.8398,-5.87109 -1.2773,-2.19141 -1.918,-4.80469 -1.918,-7.84766 0,-5.43359 2.211,-9.72265 6.6328,-12.86328 4.418,-3.14453 10.4805,-4.71484 18.1875,-4.71484 7.1758,0 14.1915,1.45703 21.0469,4.3789 l -3.5898,8.21094 c -6.6914,-2.75781 -12.7539,-4.13672 -18.1875,-4.13672 -4.7852,0 -8.3946,0.75391 -10.8281,2.25 -2.4336,1.50391 -3.6485,3.57032 -3.6485,6.20703 0,1.78516 0.457,3.30469 1.3672,4.5586 0.9141,1.25781 2.3828,2.45703 4.4102,3.58984 2.0273,1.13672 5.9218,2.78125 11.6796,4.92969 7.9063,2.87891 13.25,5.77734 16.0274,8.69531 2.7773,2.92188 4.168,6.58985 4.168,11.01172"
       style="fill:#000000;fill-opacity:1;fill-rule:nonzero;stroke:none" />
    <path
       id="path42"
       d="m 521.40625,445.98828 -21.41016,-69.76953 h -0.54687 c 0.76953,14.19531 1.15625,23.66406 1.15625,28.40625 v 41.36328 h -16.85156 v -88.92969 h 25.67187 l 21.04297,68.00391 h 0.36719 l 22.32422,-68.00391 h 25.66796 v 88.92969 H 561.25 v -42.09375 c 0,-1.98437 0.0312,-4.27734 0.0898,-6.875 0.0625,-2.59375 0.33594,-9.48828 0.82422,-20.67969 h -0.55078 l -22.92969,69.64844 z m 0,0"
       style="fill:#000000;fill-opacity:1;fill-rule:nonzero;stroke:none" />
    <path
       id="path44"
       d="m 597.85156,357.0625 h 18.85938 v 88.92969 h -18.85938 z m 0,0"
       style="fill:#000000;fill-opacity:1;fill-rule:nonzero;stroke:none" />
    <path
       id="path46"
       d="m 656.40625,398.91016 h 6.20312 c 5.79688,0 10.13672,-1.14454 13.01563,-3.4375 2.87891,-2.28907 4.32031,-5.625 4.32031,-10.00391 0,-4.41797 -1.20703,-7.68359 -3.62109,-9.79297 -2.41016,-2.10937 -6.19141,-3.16406 -11.34375,-3.16406 h -8.57422 z m 42.57812,-14.10938 c 0,9.57031 -2.99218,16.88672 -8.97265,21.95703 -5.98047,5.07031 -14.48828,7.60156 -25.51563,7.60156 h -8.08984 v 31.63282 H 637.54687 V 357.0625 h 28.40625 c 10.78907,0 18.98829,2.32031 24.60547,6.96484 5.61719,4.64453 8.42578,11.56641 8.42578,20.77344"
       style="fill:#000000;fill-opacity:1;fill-rule:nonzero;stroke:none" />
  </g>
</svg>
